<svg xmlns="http://www.w3.org/2000/svg" xmlns:xlink="http://www.w3.org/1999/xlink" viewBox="0 0 1920 1080"><defs><style>.cls-1{isolation:isolate;}.cls-2{fill:#00aeef;stroke:#000;}.cls-2,.cls-4,.cls-7{stroke-miterlimit:10;}.cls-3{mix-blend-mode:multiply;}.cls-4{mix-blend-mode:color-burn;fill:url(#linear-gradient);stroke:url(#linear-gradient-2);}.cls-5{mix-blend-mode:soft-light;}.cls-6{fill:#97daf8;}.cls-7{fill:#005b7f;stroke:#00aeef;}</style><linearGradient id="linear-gradient" x1="960" x2="960" y2="1080" gradientUnits="userSpaceOnUse"><stop offset="0" stop-color="#00aeef"/><stop offset="0.37" stop-color="#008cc1"/><stop offset="0.79" stop-color="#006991"/><stop offset="1" stop-color="#005b7f"/></linearGradient><linearGradient id="linear-gradient-2" x1="-0.5" y1="540" x2="1920.5" y2="540" gradientUnits="userSpaceOnUse"><stop offset="0" stop-color="#00aeef"/><stop offset="1" stop-color="#005b7f"/></linearGradient></defs><title>websiteBackground</title><g class="cls-1"><g id="Background"><rect class="cls-2" width="1920" height="1080"/></g><g id="Gradient_overlay" data-name="Gradient overlay" class="cls-3"><rect class="cls-4" width="1920" height="1080"/></g><g id="Side_Panels" data-name="Side Panels" class="cls-5"><rect class="cls-6" width="247.49" height="1080"/><rect class="cls-6" x="1672.51" width="247.49" height="1080"/></g><g id="Side_Panels_copy" data-name="Side Panels copy" class="cls-5"><rect class="cls-6" width="247.49" height="1080"/><rect class="cls-6" x="1672.51" width="247.49" height="1080"/></g><g id="Cell_Panels" data-name="Cell Panels" class="cls-3"><rect class="cls-7" x="10.36" y="10.36" width="50" height="50" transform="translate(35.36 -14.64) rotate(45)"/><rect class="cls-7" x="151.78" y="10.36" width="50" height="50" transform="translate(76.78 -114.64) rotate(45)"/><rect class="cls-7" x="1718.22" y="10.36" width="50" height="50" transform="translate(535.58 -1222.29) rotate(45)"/><rect class="cls-7" x="1859.64" y="10.36" width="50" height="50" transform="translate(577 -1322.29) rotate(45)"/><rect class="cls-7" x="81.07" y="81.07" width="50" height="50" transform="translate(106.07 -43.93) rotate(45)"/><polygon class="cls-7" points="247.49 141.42 212.13 106.07 247.49 70.71 247.49 106.07 247.49 141.42"/><polygon class="cls-7" points="1672.51 141.42 1672.51 106.07 1672.51 70.71 1707.87 106.07 1672.51 141.42"/><rect class="cls-7" x="1788.93" y="81.07" width="50" height="50" transform="translate(606.29 -1251.58) rotate(45)"/><rect class="cls-7" x="10.36" y="151.78" width="50" height="50" transform="translate(135.36 26.78) rotate(45)"/><rect class="cls-7" x="151.78" y="151.78" width="50" height="50" transform="translate(176.78 -73.22) rotate(45)"/><rect class="cls-7" x="1718.22" y="151.78" width="50" height="50" transform="translate(635.58 -1180.87) rotate(45)"/><rect class="cls-7" x="1859.64" y="151.78" width="50" height="50" transform="translate(677 -1280.87) rotate(45)"/><rect class="cls-7" x="81.07" y="222.49" width="50" height="50" transform="translate(206.07 -2.51) rotate(45)"/><polygon class="cls-7" points="247.49 282.84 212.13 247.49 247.49 212.13 247.49 247.49 247.49 282.84"/><polygon class="cls-7" points="1672.51 282.84 1672.51 247.49 1672.51 212.13 1707.87 247.49 1672.51 282.84"/><rect class="cls-7" x="1788.93" y="222.49" width="50" height="50" transform="translate(706.29 -1210.16) rotate(45)"/><rect class="cls-7" x="10.36" y="293.2" width="50" height="50" transform="translate(235.36 68.2) rotate(45)"/><rect class="cls-7" x="151.78" y="293.2" width="50" height="50" transform="translate(276.78 -31.8) rotate(45)"/><rect class="cls-7" x="1718.22" y="293.2" width="50" height="50" transform="translate(735.58 -1139.45) rotate(45)"/><rect class="cls-7" x="1859.64" y="293.2" width="50" height="50" transform="translate(777 -1239.45) rotate(45)"/><rect class="cls-7" x="81.07" y="363.91" width="50" height="50" transform="translate(306.07 38.91) rotate(45)"/><polygon class="cls-7" points="247.49 424.26 212.13 388.91 247.49 353.55 247.49 388.91 247.49 424.26"/><polygon class="cls-7" points="1672.51 424.26 1672.51 388.91 1672.51 353.55 1707.87 388.91 1672.51 424.26"/><rect class="cls-7" x="1788.93" y="363.91" width="50" height="50" transform="translate(806.29 -1168.74) rotate(45)"/><rect class="cls-7" x="10.36" y="434.62" width="50" height="50" transform="translate(335.36 109.62) rotate(45)"/><rect class="cls-7" x="151.78" y="434.62" width="50" height="50" transform="translate(376.78 9.62) rotate(45)"/><rect class="cls-7" x="1718.22" y="434.62" width="50" height="50" transform="translate(835.58 -1098.03) rotate(45)"/><rect class="cls-7" x="1859.64" y="434.62" width="50" height="50" transform="translate(877 -1198.03) rotate(45)"/><rect class="cls-7" x="81.07" y="505.33" width="50" height="50" transform="translate(406.07 80.33) rotate(45)"/><polygon class="cls-7" points="247.49 565.68 212.13 530.33 247.49 494.98 247.49 530.33 247.49 565.68"/><polygon class="cls-7" points="1672.51 565.68 1672.51 530.33 1672.51 494.98 1707.87 530.33 1672.51 565.68"/><rect class="cls-7" x="1788.93" y="505.33" width="50" height="50" transform="translate(906.29 -1127.31) rotate(45)"/><rect class="cls-7" x="10.36" y="576.04" width="50" height="50" transform="translate(435.36 151.04) rotate(45)"/><rect class="cls-7" x="151.78" y="576.04" width="50" height="50" transform="translate(476.78 51.04) rotate(45)"/><rect class="cls-7" x="1718.22" y="576.04" width="50" height="50" transform="translate(935.58 -1056.6) rotate(45)"/><rect class="cls-7" x="1859.64" y="576.04" width="50" height="50" transform="translate(977 -1156.6) rotate(45)"/><rect class="cls-7" x="81.07" y="646.75" width="50" height="50" transform="translate(506.07 121.75) rotate(45)"/><polygon class="cls-7" points="247.49 707.11 212.13 671.75 247.49 636.4 247.49 671.75 247.49 707.11"/><polygon class="cls-7" points="1672.51 707.11 1672.51 671.75 1672.51 636.4 1707.87 671.75 1672.51 707.11"/><rect class="cls-7" x="1788.93" y="646.75" width="50" height="50" transform="translate(1006.29 -1085.89) rotate(45)"/><rect class="cls-7" x="10.36" y="717.46" width="50" height="50" transform="translate(535.36 192.46) rotate(45)"/><rect class="cls-7" x="151.78" y="717.46" width="50" height="50" transform="translate(576.78 92.46) rotate(45)"/><rect class="cls-7" x="1718.22" y="717.46" width="50" height="50" transform="translate(1035.58 -1015.18) rotate(45)"/><rect class="cls-7" x="1859.64" y="717.46" width="50" height="50" transform="translate(1077 -1115.18) rotate(45)"/><rect class="cls-7" x="81.07" y="788.17" width="50" height="50" transform="translate(606.07 163.17) rotate(45)"/><polygon class="cls-7" points="247.49 848.53 212.13 813.17 247.49 777.82 247.49 813.17 247.49 848.53"/><polygon class="cls-7" points="1672.51 848.53 1672.51 813.17 1672.51 777.82 1707.87 813.17 1672.51 848.53"/><rect class="cls-7" x="1788.93" y="788.17" width="50" height="50" transform="translate(1106.29 -1044.47) rotate(45)"/><rect class="cls-7" x="10.36" y="858.88" width="50" height="50" transform="translate(635.36 233.88) rotate(45)"/><rect class="cls-7" x="151.78" y="858.88" width="50" height="50" transform="translate(676.78 133.88) rotate(45)"/><rect class="cls-7" x="1718.22" y="858.88" width="50" height="50" transform="translate(1135.58 -973.76) rotate(45)"/><rect class="cls-7" x="1859.64" y="858.88" width="50" height="50" transform="translate(1177 -1073.76) rotate(45)"/><rect class="cls-7" x="81.07" y="929.59" width="50" height="50" transform="translate(706.07 204.59) rotate(45)"/><polygon class="cls-7" points="247.49 989.95 212.13 954.59 247.49 919.24 247.49 954.59 247.49 989.95"/><polygon class="cls-7" points="1672.51 989.95 1672.51 954.59 1672.51 919.24 1707.87 954.59 1672.51 989.95"/><rect class="cls-7" x="1788.93" y="929.59" width="50" height="50" transform="translate(1206.29 -1003.05) rotate(45)"/><rect class="cls-7" x="10.36" y="1000.3" width="50" height="50" transform="translate(735.36 275.3) rotate(45)"/><rect class="cls-7" x="151.78" y="1000.3" width="50" height="50" transform="translate(776.78 175.3) rotate(45)"/><rect class="cls-7" x="1718.22" y="1000.3" width="50" height="50" transform="translate(1235.58 -932.34) rotate(45)"/><rect class="cls-7" x="1859.64" y="1000.3" width="50" height="50" transform="translate(1277 -1032.34) rotate(45)"/><rect class="cls-7" x="10.36" y="1071.02" width="50" height="50" transform="translate(785.36 296.02) rotate(45)"/><rect class="cls-7" x="81.07" y="1071.02" width="50" height="50" transform="translate(806.07 246.02) rotate(45)"/><rect class="cls-7" x="151.78" y="1071.02" width="50" height="50" transform="translate(826.78 196.02) rotate(45)"/><polygon class="cls-7" points="247.49 1131.37 212.13 1096.02 247.49 1060.66 247.49 1096.02 247.49 1131.37"/><polygon class="cls-7" points="1672.51 1131.37 1672.51 1096.02 1672.51 1060.66 1707.87 1096.02 1672.51 1131.37"/><rect class="cls-7" x="1718.22" y="1071.02" width="50" height="50" transform="translate(1285.58 -911.63) rotate(45)"/><rect class="cls-7" x="1788.93" y="1071.02" width="50" height="50" transform="translate(1306.29 -961.63) rotate(45)"/><rect class="cls-7" x="1859.64" y="1071.02" width="50" height="50" transform="translate(1327 -1011.63) rotate(45)"/></g></g></svg>